<?xml version="1.0" standalone="no"?>
<!DOCTYPE svg PUBLIC "-//W3C//DTD SVG 20010904//EN"
 "http://www.w3.org/TR/2001/REC-SVG-20010904/DTD/svg10.dtd">
<svg version="1.0" xmlns="http://www.w3.org/2000/svg"
 width="1000.000000pt" height="500.000000pt" viewBox="0 0 1000.000000 500.000000"
 preserveAspectRatio="xMidYMid meet">
<metadata>
Created by potrace 1.15, written by Peter Selinger 2001-2017
</metadata>
<g transform="translate(0.000000,500.000000) scale(0.100000,-0.100000)"
fill="#000000" stroke="none">
<path d="M1053 4173 c-54 -19 -121 -84 -153 -148 l-25 -50 0 -360 c0 -351 1
-362 23 -425 35 -96 97 -195 167 -264 49 -49 130 -101 417 -271 196 -115 354
-213 352 -216 -2 -4 -163 -101 -357 -215 -308 -182 -361 -217 -422 -279 -51
-51 -82 -93 -113 -155 -71 -142 -73 -164 -70 -542 3 -326 3 -334 27 -386 31
-69 106 -137 174 -157 65 -19 110 -19 178 1 64 18 1657 958 1725 1017 23 21
56 63 71 95 39 79 39 183 1 257 -41 80 -94 122 -302 245 -108 63 -196 117
-196 120 0 3 86 57 192 119 106 63 213 134 239 158 130 121 126 324 -7 442
-54 48 -1596 970 -1684 1007 -65 28 -171 31 -237 7z m902 -808 c396 -235 721
-428 722 -429 2 -2 -464 -278 -478 -284 -12 -5 -860 500 -891 532 -16 15 -41
52 -56 80 -27 51 -27 52 -30 294 -2 134 0 242 5 239 4 -2 332 -197 728 -432z
m484 -1275 c127 -74 230 -138 231 -141 0 -6 -1434 -859 -1445 -859 -3 0 -5
107 -3 238 3 227 4 239 27 286 14 27 41 65 60 84 41 40 869 534 888 530 7 -2
116 -64 242 -138z"/>
</g>
</svg>
